# xmcd
#
# Track frame offsets: 
#        150
#        26113
#        41336
#        63853
#        77964
#        99335
#        121249
#        135614
#        157103
#        176678
#
# Disc length: 2612 seconds
#
# Revision: 0
# Processed by: cddbd v1.5.2PL0 Copyright (c) Steve Scherf et al.
# Submitted via: ExactAudioCopyFreeDBPlugin 1.0
#
DISCID=7e0a320a
DTITLE=Leonel Tuchez - Pensaba en Ti
DYEAR=2001
DGENRE=Tropical
TTITLE0=Pensaba en Ti
TTITLE1=Te gozarás
TTITLE2=Espíritu de Dios
TTITLE3=Casa Nueva
TTITLE4=La historia del violin
TTITLE5=De Jesús para ti
TTITLE6=Así era yo
TTITLE7=El Mejor Amigo
TTITLE8=Salmo 23
TTITLE9=Adorador
EXTD=
EXTT0=
EXTT1=
EXTT2=
EXTT3=
EXTT4=
EXTT5=
EXTT6=
EXTT7=
EXTT8=
EXTT9=
PLAYORDER=
